<svg xmlns="http://www.w3.org/2000/svg" width="108.307" height="118.725" viewBox="0 0 108.307 118.725">
  <g id="_001-office" data-name="001-office" transform="translate(-22.465)">
    <g id="Group_97" data-name="Group 97" transform="translate(39.446 19.03)">
      <g id="Group_96" data-name="Group 96">
        <path id="Path_256" data-name="Path 256" d="M106.6,82.068h-8.48a2.423,2.423,0,0,0-2.423,2.423V97.817a2.423,2.423,0,0,0,2.423,2.423h8.48a2.423,2.423,0,0,0,2.423-2.423V84.491A2.423,2.423,0,0,0,106.6,82.068Zm-2.423,13.326h-3.635v-8.48h3.635Z" transform="translate(-95.695 -82.068)"/>
      </g>
    </g>
    <g id="Group_99" data-name="Group 99" transform="translate(56.407 19.03)">
      <g id="Group_98" data-name="Group 98">
        <path id="Path_257" data-name="Path 257" d="M179.741,82.068h-8.48a2.423,2.423,0,0,0-2.423,2.423V97.817a2.423,2.423,0,0,0,2.423,2.423h8.48a2.423,2.423,0,0,0,2.423-2.423V84.491A2.423,2.423,0,0,0,179.741,82.068Zm-2.423,13.326h-3.634v-8.48h3.634Z" transform="translate(-168.838 -82.068)"/>
      </g>
    </g>
    <g id="Group_101" data-name="Group 101" transform="translate(39.446 42.775)">
      <g id="Group_100" data-name="Group 100">
        <path id="Path_258" data-name="Path 258" d="M106.6,184.467h-8.48a2.423,2.423,0,0,0-2.423,2.423v13.326a2.423,2.423,0,0,0,2.423,2.423h8.48a2.423,2.423,0,0,0,2.423-2.423V186.89A2.423,2.423,0,0,0,106.6,184.467Zm-2.423,13.326h-3.635v-8.48h3.635Z" transform="translate(-95.695 -184.467)"/>
      </g>
    </g>
    <g id="Group_103" data-name="Group 103" transform="translate(56.407 42.775)">
      <g id="Group_102" data-name="Group 102">
        <path id="Path_259" data-name="Path 259" d="M179.741,184.467h-8.48a2.423,2.423,0,0,0-2.423,2.423v13.326a2.423,2.423,0,0,0,2.423,2.423h8.48a2.423,2.423,0,0,0,2.423-2.423V186.89A2.423,2.423,0,0,0,179.741,184.467Zm-2.423,13.326h-3.634v-8.48h3.634Z" transform="translate(-168.838 -184.467)"/>
      </g>
    </g>
    <g id="Group_105" data-name="Group 105" transform="translate(39.446 66.52)">
      <g id="Group_104" data-name="Group 104">
        <path id="Path_260" data-name="Path 260" d="M106.6,286.867h-8.48a2.423,2.423,0,0,0-2.423,2.423v13.326a2.423,2.423,0,0,0,2.423,2.423h8.48a2.423,2.423,0,0,0,2.423-2.423V289.29A2.423,2.423,0,0,0,106.6,286.867Zm-2.423,13.326h-3.635v-8.48h3.635Z" transform="translate(-95.695 -286.867)"/>
      </g>
    </g>
    <g id="Group_107" data-name="Group 107" transform="translate(56.407 66.52)">
      <g id="Group_106" data-name="Group 106">
        <path id="Path_261" data-name="Path 261" d="M179.741,286.867h-8.48a2.423,2.423,0,0,0-2.423,2.423v13.326a2.423,2.423,0,0,0,2.423,2.423h8.48a2.423,2.423,0,0,0,2.423-2.423V289.29A2.423,2.423,0,0,0,179.741,286.867Zm-2.423,13.326h-3.634v-8.48h3.634Z" transform="translate(-168.838 -286.867)"/>
      </g>
    </g>
    <g id="Group_109" data-name="Group 109" transform="translate(39.446 90.266)">
      <g id="Group_108" data-name="Group 108">
        <path id="Path_262" data-name="Path 262" d="M106.6,389.267h-8.48a2.423,2.423,0,0,0-2.423,2.423v13.326a2.423,2.423,0,0,0,2.423,2.423h8.48a2.423,2.423,0,0,0,2.423-2.423V391.69A2.423,2.423,0,0,0,106.6,389.267Zm-2.423,13.326h-3.635v-8.48h3.635Z" transform="translate(-95.695 -389.267)"/>
      </g>
    </g>
    <g id="Group_111" data-name="Group 111" transform="translate(56.407 90.266)">
      <g id="Group_110" data-name="Group 110">
        <path id="Path_263" data-name="Path 263" d="M179.741,389.267h-8.48a2.423,2.423,0,0,0-2.423,2.423v13.326a2.423,2.423,0,0,0,2.423,2.423h8.48a2.423,2.423,0,0,0,2.423-2.423V391.69A2.423,2.423,0,0,0,179.741,389.267Zm-2.423,13.326h-3.634v-8.48h3.634Z" transform="translate(-168.838 -389.267)"/>
      </g>
    </g>
    <g id="Group_113" data-name="Group 113" transform="translate(107.661 97.969)">
      <g id="Group_112" data-name="Group 112">
        <path id="Path_264" data-name="Path 264" d="M392.336,422.486h-.043a2.423,2.423,0,1,0,0,4.846h.043a2.423,2.423,0,1,0,0-4.846Z" transform="translate(-389.87 -422.486)"/>
      </g>
    </g>
    <g id="Group_115" data-name="Group 115" transform="translate(107.661 40.832)">
      <g id="Group_114" data-name="Group 114">
        <path id="Path_265" data-name="Path 265" d="M392.336,176.087h-.043a2.423,2.423,0,0,0,0,4.846h.043a2.423,2.423,0,0,0,0-4.846Z" transform="translate(-389.87 -176.087)"/>
      </g>
    </g>
    <g id="Group_117" data-name="Group 117" transform="translate(107.661 52.259)">
      <g id="Group_116" data-name="Group 116">
        <path id="Path_266" data-name="Path 266" d="M392.336,225.367h-.043a2.423,2.423,0,1,0,0,4.846h.043a2.423,2.423,0,1,0,0-4.846Z" transform="translate(-389.87 -225.367)"/>
      </g>
    </g>
    <g id="Group_119" data-name="Group 119" transform="translate(107.661 63.687)">
      <g id="Group_118" data-name="Group 118">
        <path id="Path_267" data-name="Path 267" d="M392.336,274.646h-.043a2.423,2.423,0,0,0,0,4.846h.043a2.423,2.423,0,0,0,0-4.846Z" transform="translate(-389.87 -274.646)"/>
      </g>
    </g>
    <g id="Group_121" data-name="Group 121" transform="translate(107.661 75.114)">
      <g id="Group_120" data-name="Group 120">
        <path id="Path_268" data-name="Path 268" d="M392.336,323.926h-.043a2.423,2.423,0,0,0,0,4.846h.043a2.423,2.423,0,0,0,0-4.846Z" transform="translate(-389.87 -323.926)"/>
      </g>
    </g>
    <g id="Group_123" data-name="Group 123" transform="translate(107.661 86.541)">
      <g id="Group_122" data-name="Group 122">
        <path id="Path_269" data-name="Path 269" d="M392.336,373.206h-.043a2.423,2.423,0,1,0,0,4.846h.043a2.423,2.423,0,1,0,0-4.846Z" transform="translate(-389.87 -373.206)"/>
      </g>
    </g>
    <g id="Group_125" data-name="Group 125" transform="translate(22.465 0)">
      <g id="Group_124" data-name="Group 124">
        <path id="Path_270" data-name="Path 270" d="M128.349,113.879h-6.635V31.758a2.423,2.423,0,0,0-2.423-2.423H79.061V12.842A2.423,2.423,0,0,0,77.2,10.484L33.1.065a2.423,2.423,0,0,0-2.98,2.358V113.879H24.888a2.423,2.423,0,0,0,0,4.846H128.349a2.423,2.423,0,0,0,0-4.846ZM74.215,31.758v82.121H34.963V5.485l39.252,9.274Zm42.652,82.121H79.061V102.815h22.7a2.423,2.423,0,1,0,0-4.846h-22.7V91.388h22.7a2.423,2.423,0,1,0,0-4.846h-22.7V79.96h22.7a2.423,2.423,0,1,0,0-4.846h-22.7V68.533h22.7a2.423,2.423,0,1,0,0-4.846h-22.7V57.105h22.7a2.423,2.423,0,1,0,0-4.846h-22.7V45.678h22.7a2.423,2.423,0,1,0,0-4.846h-22.7V34.181h37.806v79.7Z" transform="translate(-22.465 0)"/>
      </g>
    </g>
  </g>
</svg>
