<svg xmlns="http://www.w3.org/2000/svg" width="47.774" height="61.834" viewBox="0 0 47.774 61.834">
  <g id="_001-checklist" data-name="001-checklist" transform="translate(-44.001)">
    <g id="Group_131" data-name="Group 131" transform="translate(66.761 18.357)">
      <g id="Group_130" data-name="Group 130" transform="translate(0)">
        <path id="Path_283" data-name="Path 283" d="M263.353,152H247.128a1.211,1.211,0,0,0,0,2.415h16.225a1.211,1.211,0,0,0,0-2.415Z" transform="translate(-246.001 -152)" fill="#8ca6fc"/>
      </g>
    </g>
    <g id="Group_133" data-name="Group 133" transform="translate(78.247 24.154)">
      <g id="Group_132" data-name="Group 132">
        <path id="Path_284" data-name="Path 284" d="M349.864,200.355a1.074,1.074,0,0,0-1.593,0,1.269,1.269,0,0,0,0,1.708,1.074,1.074,0,0,0,1.593,0,1.269,1.269,0,0,0,0-1.708Z" transform="translate(-347.941 -200.001)" fill="#8ca6fc"/>
      </g>
    </g>
    <g id="Group_135" data-name="Group 135" transform="translate(66.76 5.193)">
      <g id="Group_134" data-name="Group 134" transform="translate(0)">
        <path id="Path_285" data-name="Path 285" d="M247.914,43.355a1.074,1.074,0,0,0-1.593,0,1.269,1.269,0,0,0,0,1.708,1.074,1.074,0,0,0,1.593,0,1.269,1.269,0,0,0,0-1.708Z" transform="translate(-245.991 -43.001)" fill="#8ca6fc"/>
      </g>
    </g>
    <g id="Group_137" data-name="Group 137" transform="translate(66.761 24.154)">
      <g id="Group_136" data-name="Group 136">
        <path id="Path_286" data-name="Path 286" d="M253.874,200h-6.747a1.211,1.211,0,0,0,0,2.415h6.747a1.211,1.211,0,0,0,0-2.415Z" transform="translate(-246.001 -200)" fill="#8ca6fc"/>
      </g>
    </g>
    <g id="Group_139" data-name="Group 139" transform="translate(66.761 31.4)">
      <g id="Group_138" data-name="Group 138" transform="translate(0)">
        <path id="Path_287" data-name="Path 287" d="M263.353,260H247.128a1.211,1.211,0,0,0,0,2.415h16.225a1.211,1.211,0,0,0,0-2.415Z" transform="translate(-246.001 -260)" fill="#8ca6fc"/>
      </g>
    </g>
    <g id="Group_141" data-name="Group 141" transform="translate(78.247 37.197)">
      <g id="Group_140" data-name="Group 140">
        <path id="Path_288" data-name="Path 288" d="M349.864,308.355a1.074,1.074,0,0,0-1.593,0,1.269,1.269,0,0,0,0,1.708,1.074,1.074,0,0,0,1.593,0,1.269,1.269,0,0,0,0-1.708Z" transform="translate(-347.941 -308.001)" fill="#8ca6fc"/>
      </g>
    </g>
    <g id="Group_143" data-name="Group 143" transform="translate(66.761 37.197)">
      <g id="Group_142" data-name="Group 142">
        <path id="Path_289" data-name="Path 289" d="M253.874,308h-6.747a1.211,1.211,0,0,0,0,2.415h6.747a1.211,1.211,0,0,0,0-2.415Z" transform="translate(-246.001 -308)" fill="#8ca6fc"/>
      </g>
    </g>
    <g id="Group_145" data-name="Group 145" transform="translate(66.761 44.443)">
      <g id="Group_144" data-name="Group 144" transform="translate(0)">
        <path id="Path_290" data-name="Path 290" d="M263.353,368H247.128a1.211,1.211,0,0,0,0,2.415h16.225a1.211,1.211,0,0,0,0-2.415Z" transform="translate(-246.001 -368)" fill="#8ca6fc"/>
      </g>
    </g>
    <g id="Group_147" data-name="Group 147" transform="translate(78.247 50.24)">
      <g id="Group_146" data-name="Group 146">
        <path id="Path_291" data-name="Path 291" d="M349.864,416.355a1.074,1.074,0,0,0-1.593,0,1.269,1.269,0,0,0,0,1.708,1.074,1.074,0,0,0,1.593,0,1.269,1.269,0,0,0,0-1.708Z" transform="translate(-347.941 -416.001)" fill="#8ca6fc"/>
      </g>
    </g>
    <g id="Group_149" data-name="Group 149" transform="translate(66.761 50.24)">
      <g id="Group_148" data-name="Group 148">
        <path id="Path_292" data-name="Path 292" d="M253.874,416h-6.747a1.211,1.211,0,0,0,0,2.415h6.747a1.211,1.211,0,0,0,0-2.415Z" transform="translate(-246.001 -416)" fill="#8ca6fc"/>
      </g>
    </g>
    <g id="Group_151" data-name="Group 151" transform="translate(44.001)">
      <g id="Group_150" data-name="Group 150" transform="translate(0)">
        <path id="Path_293" data-name="Path 293" d="M86.281,4.71H77.675A6.667,6.667,0,0,0,72.9,2.657h-.987a4.377,4.377,0,0,0-8.049,0h-.989A6.667,6.667,0,0,0,58.1,4.71h-8.6A5.708,5.708,0,0,0,44,10.6V55.945a5.708,5.708,0,0,0,5.494,5.888H86.281a5.708,5.708,0,0,0,5.494-5.888V10.6A5.708,5.708,0,0,0,86.281,4.71Zm-23.407.362H64.63a1.142,1.142,0,0,0,1.086-.886,2.217,2.217,0,0,1,4.344,0,1.142,1.142,0,0,0,1.086.886H72.9a4.826,4.826,0,0,1,4.66,4.589H58.215A4.826,4.826,0,0,1,62.874,5.072ZM89.522,55.946a3.367,3.367,0,0,1-3.24,3.473H49.495a3.367,3.367,0,0,1-3.24-3.473V10.6a3.367,3.367,0,0,1,3.24-3.473H56.52a7.839,7.839,0,0,0-.575,2.959v.785a1.169,1.169,0,0,0,1.127,1.208H78.7a1.169,1.169,0,0,0,1.127-1.208v-.785a7.839,7.839,0,0,0-.575-2.959h7.027a3.367,3.367,0,0,1,3.24,3.473Z" transform="translate(-44.001)" fill="#8ca6fc"/>
      </g>
    </g>
    <g id="Group_153" data-name="Group 153" transform="translate(50.904 17.713)">
      <g id="Group_152" data-name="Group 152">
        <path id="Path_294" data-name="Path 294" d="M115.081,147.021a1.074,1.074,0,0,0-1.593,0l-4.818,5.164-1.484-1.591a1.075,1.075,0,0,0-1.594,0,1.27,1.27,0,0,0,0,1.708l2.281,2.445a1.074,1.074,0,0,0,1.593,0l5.615-6.018A1.27,1.27,0,0,0,115.081,147.021Z" transform="translate(-105.261 -146.667)" fill="#8ca6fc"/>
      </g>
    </g>
    <g id="Group_155" data-name="Group 155" transform="translate(51.438 44.443)">
      <g id="Group_154" data-name="Group 154" transform="translate(0)">
        <path id="Path_295" data-name="Path 295" d="M116.536,368h-5.408A1.169,1.169,0,0,0,110,369.208V375a1.169,1.169,0,0,0,1.127,1.208h5.408A1.169,1.169,0,0,0,117.663,375v-5.8A1.169,1.169,0,0,0,116.536,368Zm-1.127,5.8h-3.155v-3.382h3.155Z" transform="translate(-110.001 -368)" fill="#8ca6fc"/>
      </g>
    </g>
    <g id="Group_157" data-name="Group 157" transform="translate(51.438 31.4)">
      <g id="Group_156" data-name="Group 156" transform="translate(0)">
        <path id="Path_296" data-name="Path 296" d="M116.536,260h-5.408A1.169,1.169,0,0,0,110,261.208V267a1.169,1.169,0,0,0,1.127,1.208h5.408A1.169,1.169,0,0,0,117.663,267v-5.8A1.169,1.169,0,0,0,116.536,260Zm-1.127,5.8h-3.155v-3.382h3.155Z" transform="translate(-110.001 -260)" fill="#8ca6fc"/>
      </g>
    </g>
  </g>
</svg>
