<svg xmlns="http://www.w3.org/2000/svg" width="62.001" height="62" viewBox="0 0 62.001 62">
  <g id="_004-industry" data-name="004-industry" transform="translate(-1 -1)">
    <path id="Path_43" data-name="Path 43" d="M58.931,17H49.07l-2,28H45V37H42.618L40.925,15H31.073l-.8,10.343-.229.114a17.821,17.821,0,0,0-4.576-1.881L24.584,22H17.416l-.89,1.576a17.878,17.878,0,0,0-4.576,1.881l-2.461-1.23L4.226,29.489,5.457,31.95A17.9,17.9,0,0,0,3.6,36.409L1,37.279V44.72l2.606.869a17.818,17.818,0,0,0,1.852,4.46L4.227,52.51,9.49,57.773l2.463-1.231c.822.486,2.28,1.325,3.048,1.765V63H63V45H60.932Zm-1.862,2,.286,4h-6.71l.286-4ZM50.5,25h7l1.429,20H49.074ZM15,37V51.388A11.993,11.993,0,1,1,29.707,32.765L29.382,37ZM32.464,23h7.071l1.077,14H31.387Zm6.61-6,.308,4H32.618l.308-4ZM12.526,54.554l-.476-.3L9.884,55.34,6.66,52.116l1.084-2.167-.3-.477A15.871,15.871,0,0,1,5.42,44.591l-.126-.548L3,43.279V38.72l2.294-.765.126-.548a15.86,15.86,0,0,1,2.026-4.881l.3-.476L6.66,29.884l3.224-3.223,2.167,1.083.477-.3a15.846,15.846,0,0,1,4.881-2.026l.431-.1L18.584,24h4.832l.745,1.321.431.1a15.871,15.871,0,0,1,4.881,2.026l.477.3.15-.075-.2,2.553A13.988,13.988,0,1,0,15,53.643V56c-.978-.564-2.135-1.234-2.474-1.446ZM27,61H17V39H43v6H31.586L27,49.586Zm10,0H33V55h4Zm10,0H43V55h4Zm10,0H53V55h4Zm2,0V53H51v8H49V53H41v8H39V53H31v8H29V51H61V61Zm2-12H30.414l2-2H61Z" fill="#8ca6fc"/>
    <path id="Path_44" data-name="Path 44" d="M51,9h9a1,1,0,0,1,0,2H58a3,3,0,0,0-3,3v1h2V14a1,1,0,0,1,1-1h2a3,3,0,0,0,0-6H51Z" fill="#8ca6fc"/>
    <path id="Path_45" data-name="Path 45" d="M48,13h2a1,1,0,0,1,1,1v1h2V14a3,3,0,0,0-3-3H48a3,3,0,0,1,0-6h7V3H48a5,5,0,0,0,0,10Z" fill="#8ca6fc"/>
    <path id="Path_46" data-name="Path 46" d="M57,3h2V5H57Z" fill="#8ca6fc"/>
    <path id="Path_47" data-name="Path 47" d="M9,7h7a1,1,0,0,1,1,1,3,3,0,0,0,3,3H32a1,1,0,0,1,1,1v1h2V12a3,3,0,0,0-3-3H20a1,1,0,0,1-1-1,3,3,0,0,0-3-3H9A1,1,0,0,1,9,3H20V1H9A3,3,0,0,0,9,7Z" fill="#8ca6fc"/>
    <path id="Path_48" data-name="Path 48" d="M29,7h3a5.006,5.006,0,0,1,5,5v1h2V12a7.008,7.008,0,0,0-7-7H29a1,1,0,0,1,0-2H40V1H29a3,3,0,0,0,0,6Z" fill="#8ca6fc"/>
    <path id="Path_49" data-name="Path 49" d="M35,41h2v2H35Z" fill="#8ca6fc"/>
    <path id="Path_50" data-name="Path 50" d="M39,41h2v2H39Z" fill="#8ca6fc"/>
    <path id="Path_51" data-name="Path 51" d="M31,41h2v2H31Z" fill="#8ca6fc"/>
    <path id="Path_52" data-name="Path 52" d="M27,41h2v2H27Z" fill="#8ca6fc"/>
    <path id="Path_53" data-name="Path 53" d="M19,41h2v2H19Z" fill="#8ca6fc"/>
    <path id="Path_54" data-name="Path 54" d="M23,41h2v2H23Z" fill="#8ca6fc"/>
    <path id="Path_55" data-name="Path 55" d="M23,45h2v2H23Z" fill="#8ca6fc"/>
    <path id="Path_56" data-name="Path 56" d="M19,45h2v2H19Z" fill="#8ca6fc"/>
    <path id="Path_57" data-name="Path 57" d="M23,49h2v2H23Z" fill="#8ca6fc"/>
    <path id="Path_58" data-name="Path 58" d="M19,49h2v2H19Z" fill="#8ca6fc"/>
    <path id="Path_59" data-name="Path 59" d="M19,53h2v2H19Z" fill="#8ca6fc"/>
    <path id="Path_60" data-name="Path 60" d="M23,53h2v2H23Z" fill="#8ca6fc"/>
    <path id="Path_61" data-name="Path 61" d="M23,57h2v2H23Z" fill="#8ca6fc"/>
    <path id="Path_62" data-name="Path 62" d="M19,57h2v2H19Z" fill="#8ca6fc"/>
    <path id="Path_63" data-name="Path 63" d="M35,25h2v2H35Z" fill="#8ca6fc"/>
    <path id="Path_64" data-name="Path 64" d="M35,33h2v2H35Z" fill="#8ca6fc"/>
    <path id="Path_65" data-name="Path 65" d="M35,29h2v2H35Z" fill="#8ca6fc"/>
    <path id="Path_66" data-name="Path 66" d="M53,27h2v2H53Z" fill="#8ca6fc"/>
    <path id="Path_67" data-name="Path 67" d="M53,35h2v2H53Z" fill="#8ca6fc"/>
    <path id="Path_68" data-name="Path 68" d="M53,31h2v2H53Z" fill="#8ca6fc"/>
    <path id="Path_69" data-name="Path 69" d="M53,39h2v2H53Z" fill="#8ca6fc"/>
  </g>
</svg>
