<svg xmlns="http://www.w3.org/2000/svg" width="60" height="50" viewBox="0 0 60 50">
  <g id="Point_Of_Sale" data-name="Point Of Sale" transform="translate(-2 -12)">
    <path id="Path_140" data-name="Path 140" d="M16,50.184V41a1,1,0,0,0-1.624-.781L12.5,41.72l-1.878-1.5a1,1,0,0,0-1.249,0L7.5,41.719l-1.872-1.5A1,1,0,0,0,4,41v9.184A3,3,0,0,0,2,53v8a1,1,0,0,0,1,1H17a1,1,0,0,0,1-1V53A3,3,0,0,0,16,50.184Zm-9.128-6.4a1,1,0,0,0,1.25,0L10,42.281l1.878,1.5a1,1,0,0,0,1.248,0l.878-.7V50H6V43.082ZM16,60H4V53a1,1,0,0,1,1-1H15a1,1,0,0,1,1,1Z" fill="#8ca6fc"/>
    <path id="Path_141" data-name="Path 141" d="M6,55h8v2H6Z" fill="#8ca6fc"/>
    <path id="Path_142" data-name="Path 142" d="M61,40a1,1,0,0,0,1-1V13a1,1,0,0,0-1-1H21a1,1,0,0,0-1,1V39a1,1,0,0,0,1,1H35v4H33a1,1,0,0,0-1,1v3H21a1,1,0,0,0-1,1V61a1,1,0,0,0,1,1H61a1,1,0,0,0,1-1V49a1,1,0,0,0-1-1H50V45a1,1,0,0,0-1-1H47V40ZM40,28h4v4H40Zm-2,4H34V28h4Zm6-6H40V22h4Zm-6,0H34V22h4Zm-6,0H28V22h4Zm-6,0H22V22h4Zm0,2v4H22V28Zm2,0h4v4H28Zm4,6v4H28V34Zm2,0h4v4H34Zm6,0h4v4H40Zm20,4H46V14H60ZM44,14v6H22V14ZM22,34h4v4H22ZM56,50v6H47V53a1,1,0,0,0-1-1H36a1,1,0,0,0-1,1v3H26V50ZM45,56H37V54h8Zm15,4H22V50h2v7a1,1,0,0,0,1,1H57a1,1,0,0,0,1-1V50h2ZM48,48H34V46H48Zm-3-4H37V40h8Z" fill="#8ca6fc"/>
    <path id="Path_143" data-name="Path 143" d="M48,20h6v2H48Z" fill="#8ca6fc"/>
    <path id="Path_144" data-name="Path 144" d="M56,20h2v2H56Z" fill="#8ca6fc"/>
    <path id="Path_145" data-name="Path 145" d="M48,24h6v2H48Z" fill="#8ca6fc"/>
    <path id="Path_146" data-name="Path 146" d="M56,24h2v2H56Z" fill="#8ca6fc"/>
    <path id="Path_147" data-name="Path 147" d="M48,28h6v2H48Z" fill="#8ca6fc"/>
    <path id="Path_148" data-name="Path 148" d="M56,28h2v2H56Z" fill="#8ca6fc"/>
    <path id="Path_149" data-name="Path 149" d="M48,32h6v2H48Z" fill="#8ca6fc"/>
    <path id="Path_150" data-name="Path 150" d="M56,32h2v2H56Z" fill="#8ca6fc"/>
    <path id="Path_151" data-name="Path 151" d="M40,16h2v2H40Z" fill="#8ca6fc"/>
    <path id="Path_152" data-name="Path 152" d="M36,16h2v2H36Z" fill="#8ca6fc"/>
    <path id="Path_153" data-name="Path 153" d="M32,16h2v2H32Z" fill="#8ca6fc"/>
    <path id="Path_154" data-name="Path 154" d="M8,46h4v2H8Z" fill="#8ca6fc"/>
  </g>
</svg>
