<svg xmlns="http://www.w3.org/2000/svg" width="114.925" height="124.75" viewBox="0 0 114.925 124.75">
  <g id="_005-skyscrapper" data-name="005-skyscrapper" transform="translate(0 0)">
    <path id="Path_191" data-name="Path 191" d="M413.281,163.011v18.4a1.689,1.689,0,1,0,3.374,0v-18.4A1.689,1.689,0,1,0,413.281,163.011Zm0,0" transform="translate(-320.327 -121.956)"/>
    <path id="Path_192" data-name="Path 192" d="M444.347,183.235a1.761,1.761,0,0,0,1.687-1.827v-18.4a1.689,1.689,0,1,0-3.374,0v18.4A1.762,1.762,0,0,0,444.347,183.235Zm0,0" transform="translate(-343.098 -121.956)"/>
    <path id="Path_193" data-name="Path 193" d="M256.085,89a1.762,1.762,0,0,0-1.687,1.827V147.6a1.692,1.692,0,1,0,3.374,0V90.827A1.762,1.762,0,0,0,256.085,89Zm0,0" transform="translate(-197.179 -67.315)"/>
    <path id="Path_194" data-name="Path 194" d="M182.449,89a1.761,1.761,0,0,0-1.687,1.827V147.6a1.692,1.692,0,1,0,3.374,0V90.827A1.762,1.762,0,0,0,182.449,89Zm0,0" transform="translate(-140.105 -67.315)"/>
    <path id="Path_195" data-name="Path 195" d="M220.335,89a1.761,1.761,0,0,0-1.687,1.827V147.6a1.692,1.692,0,1,0,3.374,0V90.827A1.762,1.762,0,0,0,220.335,89Zm0,0" transform="translate(-169.47 -67.315)"/>
    <path id="Path_196" data-name="Path 196" d="M37.493,397.475H58.136c2.175,0,2.175-3.655,0-3.655H37.493C35.316,393.82,35.316,397.475,37.493,397.475Zm0,0" transform="translate(-27.794 -297.865)"/>
    <path id="Path_197" data-name="Path 197" d="M37.493,429.28H58.136c2.175,0,2.175-3.655,0-3.655H37.493C35.316,425.625,35.316,429.28,37.493,429.28Zm0,0" transform="translate(-27.794 -321.92)"/>
    <path id="Path_198" data-name="Path 198" d="M37.493,461.089H58.136c2.175,0,2.175-3.655,0-3.655H37.493C35.316,457.434,35.316,461.089,37.493,461.089Zm0,0" transform="translate(-27.794 -345.979)"/>
    <path id="Path_199" data-name="Path 199" d="M53.228,152.113c-2.171,0-2.174,3.655,0,3.655S55.4,152.113,53.228,152.113Zm0,0" transform="translate(-39.993 -115.05)"/>
    <path id="Path_200" data-name="Path 200" d="M83.392,152.113c-2.171,0-2.174,3.655,0,3.655S85.567,152.113,83.392,152.113Zm0,0" transform="translate(-63.373 -115.05)"/>
    <path id="Path_201" data-name="Path 201" d="M113.56,152.113c-2.171,0-2.174,3.655,0,3.655S115.735,152.113,113.56,152.113Zm0,0" transform="translate(-86.755 -115.05)"/>
    <path id="Path_202" data-name="Path 202" d="M53.228,185.5c-2.171,0-2.174,3.655,0,3.655S55.4,185.5,53.228,185.5Zm0,0" transform="translate(-39.993 -140.305)"/>
    <path id="Path_203" data-name="Path 203" d="M83.392,185.5c-2.171,0-2.174,3.655,0,3.655S85.567,185.5,83.392,185.5Zm0,0" transform="translate(-63.373 -140.305)"/>
    <path id="Path_204" data-name="Path 204" d="M113.56,185.5c-2.171,0-2.174,3.655,0,3.655S115.735,185.5,113.56,185.5Zm0,0" transform="translate(-86.755 -140.305)"/>
    <path id="Path_205" data-name="Path 205" d="M53.228,218.9c-2.171,0-2.174,3.655,0,3.655S55.4,218.9,53.228,218.9Zm0,0" transform="translate(-39.993 -165.561)"/>
    <path id="Path_206" data-name="Path 206" d="M83.392,218.9c-2.171,0-2.174,3.655,0,3.655S85.567,218.9,83.392,218.9Zm0,0" transform="translate(-63.373 -165.561)"/>
    <path id="Path_207" data-name="Path 207" d="M113.56,218.9c-2.171,0-2.174,3.655,0,3.655S115.735,218.9,113.56,218.9Zm0,0" transform="translate(-86.755 -165.561)"/>
    <path id="Path_208" data-name="Path 208" d="M53.228,252.285c-2.171,0-2.174,3.655,0,3.655S55.4,252.285,53.228,252.285Zm0,0" transform="translate(-39.993 -190.815)"/>
    <path id="Path_209" data-name="Path 209" d="M83.392,252.285c-2.171,0-2.174,3.655,0,3.655S85.567,252.285,83.392,252.285Zm0,0" transform="translate(-63.373 -190.815)"/>
    <path id="Path_210" data-name="Path 210" d="M113.56,252.285c-2.171,0-2.174,3.655,0,3.655S115.735,252.285,113.56,252.285Zm0,0" transform="translate(-86.755 -190.815)"/>
    <path id="Path_211" data-name="Path 211" d="M53.228,285.676c-2.171,0-2.174,3.655,0,3.655S55.4,285.676,53.228,285.676Zm0,0" transform="translate(-39.993 -216.07)"/>
    <path id="Path_212" data-name="Path 212" d="M83.392,285.676c-2.171,0-2.174,3.655,0,3.655S85.567,285.676,83.392,285.676Zm0,0" transform="translate(-63.373 -216.07)"/>
    <path id="Path_213" data-name="Path 213" d="M113.56,285.676c-2.171,0-2.174,3.655,0,3.655S115.735,285.676,113.56,285.676Zm0,0" transform="translate(-86.755 -216.07)"/>
    <path id="Path_214" data-name="Path 214" d="M53.228,319.066c-2.171,0-2.174,3.655,0,3.655S55.4,319.066,53.228,319.066Zm0,0" transform="translate(-39.993 -241.325)"/>
    <path id="Path_215" data-name="Path 215" d="M83.392,319.066c-2.171,0-2.174,3.655,0,3.655S85.567,319.066,83.392,319.066Zm0,0" transform="translate(-63.373 -241.325)"/>
    <path id="Path_216" data-name="Path 216" d="M113.56,319.066c-2.171,0-2.174,3.655,0,3.655S115.735,319.066,113.56,319.066Zm0,0" transform="translate(-86.755 -241.325)"/>
    <path id="Path_217" data-name="Path 217" d="M368.011,300.483a1.761,1.761,0,0,0,1.687-1.827v-5.09a1.689,1.689,0,1,0-3.374,0v5.09A1.761,1.761,0,0,0,368.011,300.483Zm0,0" transform="translate(-283.932 -220.7)"/>
    <path id="Path_218" data-name="Path 218" d="M330.66,312.491a1.761,1.761,0,0,0,1.687-1.827V293.743a1.694,1.694,0,1,0-3.374,0v16.921A1.761,1.761,0,0,0,330.66,312.491Zm0,0" transform="translate(-254.981 -220.769)"/>
    <path id="Path_219" data-name="Path 219" d="M368.011,361.07a1.761,1.761,0,0,0,1.687-1.827V342.566a1.689,1.689,0,1,0-3.374,0v16.677A1.761,1.761,0,0,0,368.011,361.07Zm0,0" transform="translate(-283.932 -257.761)"/>
    <path id="Path_220" data-name="Path 220" d="M330.66,398.483a1.761,1.761,0,0,0,1.687-1.827v-5.09a1.689,1.689,0,1,0-3.374,0v5.09A1.761,1.761,0,0,0,330.66,398.483Zm0,0" transform="translate(-254.981 -294.822)"/>
    <path id="Path_221" data-name="Path 221" d="M330.66,447.483a1.761,1.761,0,0,0,1.687-1.827v-5.09a1.689,1.689,0,1,0-3.374,0v5.09A1.761,1.761,0,0,0,330.66,447.483Zm0,0" transform="translate(-254.981 -331.883)"/>
    <path id="Path_222" data-name="Path 222" d="M368.011,447.483a1.761,1.761,0,0,0,1.687-1.827v-5.09a1.689,1.689,0,1,0-3.374,0v5.09A1.761,1.761,0,0,0,368.011,447.483Zm0,0" transform="translate(-283.932 -331.883)"/>
    <path id="Path_223" data-name="Path 223" d="M114.834,30.942l-2.474-7.553a1.7,1.7,0,0,0-1.59-1.216H107.6L99.872,8.081a1.667,1.667,0,0,0-1.451-.894H96.328V1.827a1.689,1.689,0,1,0-3.374,0v5.36H89.9a1.677,1.677,0,0,0-1.494.979L81.634,22.172H78.512a1.7,1.7,0,0,0-1.589,1.216l-2.474,7.553a1.844,1.844,0,0,0,1.589,2.438h2.574v16.9L68.754,41.3V13.766a1.762,1.762,0,0,0-1.687-1.827H62.633V1.827A1.761,1.761,0,0,0,60.946,0H40.3a1.762,1.762,0,0,0-1.687,1.827V11.939H34.182A1.761,1.761,0,0,0,32.5,13.766v13.9H29.122V9.635A1.719,1.719,0,0,0,26.68,8L11.85,16.042a1.85,1.85,0,0,0-.932,1.634v9.988H6a1.761,1.761,0,0,0-1.687,1.827V86.559H1.687A1.761,1.761,0,0,0,0,88.386v16.872a1.689,1.689,0,1,0,3.374,0V90.213H36.665V121.1H3.374V114.03a1.689,1.689,0,1,0-3.374,0v8.893a1.761,1.761,0,0,0,1.687,1.827H96.6c2.176,0,2.176-3.655,0-3.655H94.377V65.482a1.894,1.894,0,0,0-.6-1.4l-4.222-3.844a1.94,1.94,0,0,0,.166-.787v-18.4a1.689,1.689,0,1,0-3.374,0V57.318l-4.36-3.97V33.5H107.3V121.1h-2.148c-2.176,0-2.176,3.655,0,3.655h3.835a1.761,1.761,0,0,0,1.687-1.827V33.38h2.574a1.848,1.848,0,0,0,1.59-2.438ZM41.989,3.655H59.259v8.284H41.989Zm-27.7,15.151,11.457-6.212v15.07H14.292Zm-6.6,67.753V31.319h4.671a1.587,1.587,0,0,0,.243.022h14.83a1.588,1.588,0,0,0,.244-.022H32.35v55.24ZM91,121.1H68.754V63.837a1.692,1.692,0,1,0-3.374,0V121.1H40.039V88.386a1.761,1.761,0,0,0-1.687-1.827H35.869V15.594H65.38V54.578a1.692,1.692,0,1,0,3.374,0v-8.5L91,66.332ZM90.921,10.842h6.541l6.216,11.33H85.443ZM78.427,29.725l1.277-3.9h29.874l1.277,3.9Zm0,0"/>
    <path id="Path_224" data-name="Path 224" d="M444.8,276.5c-2.171,0-2.174,3.655,0,3.655S446.977,276.5,444.8,276.5Zm0,0" transform="translate(-343.496 -209.13)"/>
    <path id="Path_225" data-name="Path 225" d="M444.8,312.7c-2.171,0-2.174,3.655,0,3.655S446.977,312.7,444.8,312.7Zm0,0" transform="translate(-343.496 -236.509)"/>
    <path id="Path_226" data-name="Path 226" d="M444.8,348.9c-2.171,0-2.174,3.655,0,3.655S446.977,348.9,444.8,348.9Zm0,0" transform="translate(-343.496 -263.888)"/>
    <path id="Path_227" data-name="Path 227" d="M444.8,385.1c-2.171,0-2.174,3.655,0,3.655S446.977,385.1,444.8,385.1Zm0,0" transform="translate(-343.496 -291.271)"/>
    <path id="Path_228" data-name="Path 228" d="M444.8,421.3c-2.171,0-2.174,3.655,0,3.655S446.977,421.3,444.8,421.3Zm0,0" transform="translate(-343.496 -318.65)"/>
    <path id="Path_229" data-name="Path 229" d="M444.8,457.5c-2.171,0-2.174,3.655,0,3.655S446.977,457.5,444.8,457.5Zm0,0" transform="translate(-343.496 -346.029)"/>
  </g>
</svg>
