<svg xmlns="http://www.w3.org/2000/svg" width="56.125" height="47.595" viewBox="0 0 56.125 47.595">
  <g id="upload-cloud" transform="translate(0.014 -1.994)">
    <path id="Path_3" data-name="Path 3" d="M27.374,21.687,17.687,12,8,21.687" transform="translate(10.367 13.801)" fill="none" stroke="#fff" stroke-linecap="round" stroke-linejoin="round" stroke-width="2"/>
    <line id="Line_1" data-name="Line 1" y2="22" transform="translate(27.995 26.589)" fill="none" stroke="#fff" stroke-linecap="round" stroke-linejoin="round" stroke-width="2"/>
    <path id="Path_4" data-name="Path 4" d="M48.683,41.855a12.755,12.755,0,0,0,6.029-14.2,12.358,12.358,0,0,0-11.906-9.511h-3.1A19.844,19.844,0,0,0,22.9,3.133,19.551,19.551,0,0,0,3.221,13.868a20.628,20.628,0,0,0,2.7,22.71" transform="translate(0)" fill="none" stroke="#fff" stroke-linecap="round" stroke-linejoin="round" stroke-width="2"/>
    <path id="Path_5" data-name="Path 5" d="M27.374,21.687,17.687,12,8,21.687" transform="translate(10.367 13.801)" fill="none" stroke="#fff" stroke-linecap="round" stroke-linejoin="round" stroke-width="2"/>
  </g>
</svg>
